<svg width="20" height="20" viewBox="0 0 20 20" fill="none" xmlns="http://www.w3.org/2000/svg">
<path d="M4.99967 16.6668C5.91634 16.6668 6.66634 15.9168 6.66634 15.0002V9.16683C6.66634 8.25016 5.91634 7.50016 4.99967 7.50016C4.08301 7.50016 3.33301 8.25016 3.33301 9.16683V15.0002C3.33301 15.9168 4.08301 16.6668 4.99967 16.6668ZM13.333 12.5002V15.0002C13.333 15.9168 14.083 16.6668 14.9997 16.6668C15.9163 16.6668 16.6663 15.9168 16.6663 15.0002V12.5002C16.6663 11.5835 15.9163 10.8335 14.9997 10.8335C14.083 10.8335 13.333 11.5835 13.333 12.5002ZM9.99967 16.6668C10.9163 16.6668 11.6663 15.9168 11.6663 15.0002V5.00016C11.6663 4.0835 10.9163 3.3335 9.99967 3.3335C9.08301 3.3335 8.33301 4.0835 8.33301 5.00016V15.0002C8.33301 15.9168 9.08301 16.6668 9.99967 16.6668Z" fill="#CBCBD4"/>
</svg>
