<svg width="20" height="21" viewBox="0 0 20 21" fill="none" xmlns="http://www.w3.org/2000/svg">
<path d="M13.75 6.28125C13.5807 6.28125 13.4342 6.2194 13.3105 6.0957C13.1868 5.97201 13.125 5.82552 13.125 5.65625C13.125 5.32422 13.1868 5.00521 13.3105 4.69922C13.4342 4.39323 13.6165 4.12305 13.8574 3.88867L14.6289 3.10742C14.8763 2.86003 15 2.5638 15 2.21875C15 2.04948 15.0618 1.90299 15.1855 1.7793C15.3092 1.6556 15.4557 1.59375 15.625 1.59375C15.7943 1.59375 15.9408 1.6556 16.0645 1.7793C16.1882 1.90299 16.25 2.04948 16.25 2.21875C16.25 2.55078 16.1882 2.86979 16.0645 3.17578C15.9408 3.48177 15.7585 3.75195 15.5176 3.98633L14.7461 4.76758C14.4987 5.01497 14.375 5.3112 14.375 5.65625C14.375 5.82552 14.3132 5.97201 14.1895 6.0957C14.0658 6.2194 13.9193 6.28125 13.75 6.28125ZM10 6.28125C9.83073 6.28125 9.68425 6.2194 9.56055 6.0957C9.43685 5.97201 9.375 5.82552 9.375 5.65625C9.375 5.32422 9.43685 5.00521 9.56055 4.69922C9.68425 4.39323 9.86654 4.12305 10.1074 3.88867L10.8789 3.10742C11.1263 2.86003 11.25 2.5638 11.25 2.21875C11.25 2.04948 11.3118 1.90299 11.4355 1.7793C11.5592 1.6556 11.7057 1.59375 11.875 1.59375C12.0443 1.59375 12.1908 1.6556 12.3145 1.7793C12.4382 1.90299 12.5 2.04948 12.5 2.21875C12.5 2.55078 12.4382 2.86979 12.3145 3.17578C12.1908 3.48177 12.0085 3.75195 11.7676 3.98633L10.9961 4.76758C10.7487 5.01497 10.625 5.3112 10.625 5.65625C10.625 5.82552 10.5632 5.97201 10.4395 6.0957C10.3158 6.2194 10.1693 6.28125 10 6.28125ZM18.125 8C18.3854 8 18.6296 8.04883 18.8574 8.14648C19.0853 8.24414 19.2839 8.3776 19.4531 8.54688C19.6224 8.71615 19.7559 8.91471 19.8535 9.14258C19.9512 9.37044 20 9.61458 20 9.875V13.625C20 13.8854 19.9512 14.1296 19.8535 14.3574C19.7559 14.5853 19.6224 14.7839 19.4531 14.9531C19.2839 15.1224 19.0853 15.2559 18.8574 15.3535C18.6296 15.4512 18.3854 15.5 18.125 15.5H17.5684C17.5553 15.5456 17.5456 15.5879 17.5391 15.627C17.5326 15.666 17.5195 15.7051 17.5 15.7441V16.125C17.5 16.5547 17.4186 16.9583 17.2559 17.3359C17.0931 17.7135 16.8685 18.0456 16.582 18.332C16.2956 18.6185 15.9635 18.8431 15.5859 19.0059C15.2083 19.1686 14.8047 19.25 14.375 19.25H10.625C10.1172 19.25 9.64844 19.1361 9.21875 18.9082C8.78906 18.6803 8.43099 18.3776 8.14453 18H3.26172C2.83203 18 2.42839 17.9186 2.05078 17.7559C1.67318 17.5931 1.34115 17.3717 1.05469 17.0918C0.768229 16.8118 0.54362 16.4798 0.380859 16.0957C0.218099 15.7116 0.136719 15.3047 0.136719 14.875V14.25H2.63672C2.63672 13.7357 2.73438 13.2507 2.92969 12.7949C3.125 12.3392 3.39518 11.9421 3.74023 11.6035C4.08529 11.265 4.48242 10.9948 4.93164 10.793C5.38086 10.5911 5.86589 10.4935 6.38672 10.5C6.58203 10.5 6.77083 10.5163 6.95312 10.5488C7.13542 10.5814 7.31771 10.627 7.5 10.6855V6.75H17.5V8H18.125ZM6.38672 11.75C6.04167 11.75 5.7194 11.8151 5.41992 11.9453C5.12044 12.0755 4.85352 12.2546 4.61914 12.4824C4.38477 12.7103 4.20573 12.974 4.08203 13.2734C3.95833 13.5729 3.89323 13.8984 3.88672 14.25H7.5V12.0234C7.33073 11.9388 7.15495 11.8737 6.97266 11.8281C6.79036 11.7826 6.59505 11.7565 6.38672 11.75ZM3.26172 16.75H7.56836C7.52279 16.5612 7.5 16.3529 7.5 16.125V15.5H1.49414C1.55924 15.6823 1.65039 15.8483 1.76758 15.998C1.88477 16.1478 2.01823 16.2812 2.16797 16.3984C2.31771 16.5156 2.48698 16.6003 2.67578 16.6523C2.86458 16.7044 3.0599 16.737 3.26172 16.75ZM7.7832 17.4043V17.4141L7.79297 17.4336V17.4238L7.7832 17.4043ZM16.25 16.125V8H8.75V16.125C8.75 16.3854 8.79883 16.6296 8.89648 16.8574C8.99414 17.0853 9.1276 17.2839 9.29688 17.4531C9.46615 17.6224 9.66471 17.7559 9.89258 17.8535C10.1204 17.9512 10.3646 18 10.625 18H14.375C14.6354 18 14.8796 17.9512 15.1074 17.8535C15.3353 17.7559 15.5339 17.6224 15.7031 17.4531C15.8724 17.2839 16.0059 17.0853 16.1035 16.8574C16.2012 16.6296 16.25 16.3854 16.25 16.125ZM18.75 13.625V9.875C18.75 9.70573 18.6882 9.55924 18.5645 9.43555C18.4408 9.31185 18.2943 9.25 18.125 9.25H17.5V14.25H18.125C18.2943 14.25 18.4408 14.1882 18.5645 14.0645C18.6882 13.9408 18.75 13.7943 18.75 13.625Z" fill="black"/>
</svg>
