<svg width="20" height="20" viewBox="0 0 20 20" fill="none" xmlns="http://www.w3.org/2000/svg">
<path d="M9.48341 1.68359C8.86936 2.25578 8.37684 2.94578 8.03524 3.71244C7.69364 4.4791 7.50996 5.30672 7.49515 6.14591C7.48034 6.9851 7.63472 7.81867 7.94906 8.59691C8.2634 9.37514 8.73127 10.0821 9.32476 10.6756C9.91825 11.2691 10.6252 11.7369 11.4034 12.0513C12.1817 12.3656 13.0152 12.52 13.8544 12.5052C14.6936 12.4904 15.5212 12.3067 16.2879 11.9651C17.0546 11.6235 17.7446 11.131 18.3167 10.5169C18.0517 14.8794 14.4301 18.3344 10.0009 18.3344C5.39758 18.3344 1.66675 14.6036 1.66675 10.0011C1.66675 5.57193 5.12175 1.95026 9.48341 1.68359Z" fill="black"/>
</svg>
