<svg width="20" height="21" viewBox="0 0 20 21" fill="none" xmlns="http://www.w3.org/2000/svg">
<path d="M5.04282 1.92969C4.33997 1.92969 3.74425 2.45683 3.67139 3.16183C3.56568 4.16755 3.39282 5.98826 3.39282 7.10826C3.39282 8.16541 3.87711 9.10969 4.63354 9.73112C4.88211 9.93541 4.99997 10.1597 4.99997 10.3483V10.8211L4.99925 10.8547C4.96997 11.2825 4.64282 16.0597 4.64282 16.9297C4.64282 17.2111 4.69825 17.4897 4.80594 17.7497C4.91363 18.0097 5.07147 18.2459 5.27045 18.4449C5.46943 18.6439 5.70566 18.8017 5.96564 18.9094C6.22563 19.0171 6.50428 19.0725 6.78568 19.0725C7.06708 19.0725 7.34573 19.0171 7.60572 18.9094C7.8657 18.8017 8.10193 18.6439 8.30091 18.4449C8.49989 18.2459 8.65773 18.0097 8.76542 17.7497C8.87311 17.4897 8.92854 17.2111 8.92854 16.9297C8.92854 16.0597 8.60211 11.2825 8.57211 10.8547L8.57139 10.8211V10.3483C8.57139 10.159 8.68925 9.93541 8.93782 9.73112C9.32608 9.4132 9.63881 9.01295 9.85339 8.55934C10.068 8.10572 10.179 7.61007 10.1785 7.10826C10.1785 5.98826 10.0057 4.16755 9.89996 3.16183C9.86427 2.82319 9.70432 2.5098 9.45102 2.28223C9.19772 2.05466 8.86905 1.92905 8.52854 1.92969C8.20211 1.92969 7.90139 2.04255 7.66425 2.23183C7.41324 2.03604 7.10402 1.9297 6.78568 1.92969C6.46734 1.9297 6.15812 2.03604 5.90711 2.23183C5.66185 2.0356 5.35693 1.929 5.04282 1.92969ZM6.42854 3.35826C6.42854 3.26354 6.46616 3.1727 6.53314 3.10572C6.60012 3.03875 6.69096 3.00112 6.78568 3.00112C6.8804 3.00112 6.97124 3.03875 7.03822 3.10572C7.1052 3.1727 7.14282 3.26354 7.14282 3.35826V7.10826C7.14282 7.25034 7.19926 7.3866 7.29973 7.48707C7.4002 7.58754 7.53646 7.64398 7.67854 7.64398C7.82062 7.64398 7.95688 7.58754 8.05734 7.48707C8.15781 7.3866 8.21425 7.25034 8.21425 7.10826V3.31541C8.21425 3.23205 8.24736 3.15211 8.3063 3.09317C8.36524 3.03423 8.44518 3.00112 8.52854 3.00112C8.68925 3.00112 8.81925 3.12041 8.83497 3.27326C8.94068 4.28755 9.10711 6.05326 9.10711 7.10826C9.10762 7.45173 9.03167 7.79101 8.88477 8.10148C8.73788 8.41195 8.52371 8.68584 8.25782 8.90326C7.87354 9.21898 7.49997 9.71755 7.49997 10.3483V10.8211C7.49997 10.8568 7.50068 10.8897 7.50354 10.9283C7.53497 11.389 7.85711 16.1075 7.85711 16.9297C7.85711 17.2139 7.74423 17.4864 7.54329 17.6873C7.34236 17.8882 7.06984 18.0011 6.78568 18.0011C6.50152 18.0011 6.229 17.8882 6.02806 17.6873C5.82713 17.4864 5.71425 17.2139 5.71425 16.9297C5.71425 16.1083 6.03568 11.389 6.06782 10.9283C6.07068 10.8897 6.07139 10.8568 6.07139 10.8211V10.3483C6.07139 9.71683 5.69782 9.21898 5.31354 8.90326C5.04765 8.68584 4.83348 8.41195 4.68659 8.10148C4.53969 7.79101 4.46374 7.45173 4.46425 7.10826C4.46425 6.05326 4.63068 4.28826 4.73639 3.27326C4.74455 3.19795 4.78045 3.12836 4.83709 3.07805C4.89373 3.02775 4.96707 3.00032 5.04282 3.00112C5.12618 3.00112 5.20612 3.03423 5.26506 3.09317C5.324 3.15211 5.35711 3.23205 5.35711 3.31541V7.10826C5.35711 7.25034 5.41355 7.3866 5.51401 7.48707C5.61448 7.58754 5.75074 7.64398 5.89282 7.64398C6.0349 7.64398 6.17116 7.58754 6.27163 7.48707C6.3721 7.3866 6.42854 7.25034 6.42854 7.10826V3.35826ZM16.0714 3.00541V9.96541C16.0714 10.2154 16.1385 11.3918 16.2128 12.6868L16.2171 12.7618C16.3171 14.5018 16.4285 16.4511 16.4285 16.9297C16.4285 17.2139 16.3157 17.4864 16.1147 17.6873C15.9138 17.8882 15.6413 18.0011 15.3571 18.0011C15.0729 18.0011 14.8004 17.8882 14.5995 17.6873C14.3986 17.4864 14.2857 17.2139 14.2857 16.9297C14.2857 16.5047 14.3735 14.7847 14.4635 13.144C14.5162 12.1825 14.5705 11.221 14.6264 10.2597L14.6421 9.99683L14.6428 9.96541C14.6428 9.82333 14.5864 9.68706 14.4859 9.5866C14.3855 9.48613 14.2492 9.42969 14.1071 9.42969H12.6785C12.6312 9.42969 12.5858 9.41088 12.5523 9.37739C12.5188 9.3439 12.5 9.29848 12.5 9.25112V6.75112C12.5 5.78748 12.8709 4.86082 13.5359 4.16339C14.2009 3.46596 15.1088 3.05129 16.0714 3.00541ZM13.5393 10.5011L13.5164 10.8983C13.4828 11.4818 13.4378 12.2697 13.3935 13.0854C13.305 14.7047 13.2143 16.4668 13.2143 16.9297C13.2143 17.2111 13.2697 17.4897 13.3774 17.7497C13.4851 18.0097 13.6429 18.2459 13.8419 18.4449C14.0409 18.6439 14.2771 18.8017 14.5371 18.9094C14.7971 19.0171 15.0757 19.0725 15.3571 19.0725C15.6385 19.0725 15.9172 19.0171 16.1771 18.9094C16.4371 18.8017 16.6734 18.6439 16.8723 18.4449C17.0713 18.2459 17.2292 18.0097 17.3369 17.7497C17.4445 17.4897 17.5 17.2111 17.5 16.9297C17.5 16.4147 17.3871 14.4483 17.29 12.7475L17.2871 12.7004C17.2093 11.344 17.1428 10.1797 17.1428 9.96541V2.46541C17.1428 2.32332 17.0864 2.18706 16.9859 2.0866C16.8855 1.98613 16.7492 1.92969 16.6071 1.92969H16.25C14.9712 1.92969 13.7449 2.43766 12.8407 3.34185C11.9365 4.24605 11.4285 5.4724 11.4285 6.75112V9.25112C11.4285 9.94112 11.9885 10.5011 12.6785 10.5011H13.5393Z" fill="black"/>
</svg>
