<svg width="20" height="20" viewBox="0 0 20 20" fill="none" xmlns="http://www.w3.org/2000/svg">
<path d="M13.6119 5.00391C12.9633 5.02843 12.321 5.1407 11.7025 5.33766C11.3286 5.44728 10.9483 5.53348 10.5638 5.59578C10.4088 4.72981 9.95448 3.9458 9.28026 3.38068C8.60605 2.81556 7.75473 2.50523 6.875 2.50391V3.75391C7.4164 3.75543 7.94259 3.9331 8.3741 4.26009C8.8056 4.58707 9.11898 5.0456 9.26687 5.56641C8.92699 5.50436 8.58983 5.42826 8.25625 5.33828C7.6106 5.14487 6.94339 5.03255 6.27 5.00391C3.94375 5.00391 2.5 6.91953 2.5 10.0039C2.5 14.6977 5.0425 17.5033 7.5 17.5039H7.50125C8.03786 17.4749 8.56493 17.35 9.0575 17.1352C9.35629 17.0009 9.67434 16.9144 10 16.8789C10.3263 16.9142 10.645 17.0007 10.9444 17.1352C11.4368 17.3499 11.9636 17.4748 12.5 17.5039C14.9563 17.5033 17.5 14.6977 17.5 10.0039C17.5 7.69766 16.4812 5.00391 13.6119 5.00391ZM12.5 16.2539C12.1134 16.2211 11.7351 16.123 11.3812 15.9639C10.9445 15.7707 10.4767 15.6572 10 15.6289C9.52413 15.6575 9.0572 15.771 8.62125 15.9639C8.26659 16.1233 7.88746 16.2213 7.5 16.2539H7.50125C5.6575 16.2533 3.75 13.9158 3.75 10.0039C3.75 8.87641 3.99562 6.25391 6.27 6.25391C6.83827 6.284 7.40076 6.38327 7.945 6.54953C8.56503 6.73484 9.20498 6.84542 9.85125 6.87891H10.1581C10.7941 6.84854 11.4235 6.73594 12.0306 6.54391C12.543 6.37957 13.0745 6.2821 13.6119 6.25391C16.1225 6.25391 16.25 9.37766 16.25 10.0039C16.25 13.9158 14.3425 16.2533 12.5 16.2539Z" fill="black"/>
<path d="M11.25 4.37891H10.625V3.75391C10.625 3.42239 10.7567 3.10444 10.9911 2.87002C11.2255 2.6356 11.5435 2.50391 11.875 2.50391H12.5V3.12891C12.5 3.46043 12.3683 3.77837 12.1339 4.01279C11.8995 4.24721 11.5815 4.37891 11.25 4.37891Z" fill="black"/>
</svg>
