<svg width="24" height="24" viewBox="0 0 24 24" fill="none" xmlns="http://www.w3.org/2000/svg">
<path fill-rule="evenodd" clip-rule="evenodd" d="M6.8181 2.00028C5.26167 2.00028 4.33325 2.9287 4.33325 4.48513V19.5154C4.33325 21.0719 5.26167 22.0003 6.8181 22.0003H13.1689C12.9661 21.7308 12.7952 21.436 12.6618 21.1215H6.8585C6.3397 21.1215 5.16659 20.5003 5.25244 19.5154V4.48513C5.25244 3.50028 6.3397 2.87907 6.8585 2.87907H12.4141V8.24271C12.4141 9.17619 12.588 9.17403 13.3784 9.16419C13.4666 9.16309 13.5624 9.1619 13.6666 9.1619H18.9898V16.1608C19.3438 16.4254 19.6544 16.7449 19.909 17.1065V9.02093C19.909 8.89737 19.9123 8.78298 19.9153 8.67572C19.9308 8.13413 19.9411 7.77423 19.4999 7.33308L14.3333 2.49975C13.8319 1.9984 13.6541 1.99877 12.9992 2.00013L12.8884 2.00028H6.8181ZM18.9341 8.24271L13.3333 2.93485V8.24271H18.9341Z" fill="black"/>
<path d="M12.7499 19.4997C12.7499 17.4323 14.4325 15.7497 16.4999 15.7497C18.5674 15.7497 20.2499 17.4323 20.2499 19.4997C20.2499 21.567 18.5674 23.2497 16.4999 23.2497C14.4325 23.2497 12.7499 21.567 12.7499 19.4997Z" stroke="black" stroke-width="0.833333"/>
<path d="M16.4333 21.666C16.6727 21.666 16.8667 21.472 16.8667 21.2327V19.3994C16.8667 19.16 16.6727 18.966 16.4333 18.966C16.194 18.966 16 19.16 16 19.3994V21.2327C16 21.472 16.194 21.666 16.4333 21.666Z" fill="black"/>
<path d="M16 18.0993C16 18.3387 16.194 18.5327 16.4333 18.5327C16.6727 18.5327 16.8667 18.3387 16.8667 18.0993C16.8667 17.86 16.6727 17.666 16.4333 17.666C16.194 17.666 16 17.86 16 18.0993Z" fill="black"/>
</svg>
