<svg width="24" height="24" viewBox="0 0 24 24" fill="none" xmlns="http://www.w3.org/2000/svg">
<g clip-path="url(#clip0_2433_2344)">
<path d="M0 11.8412C0.188852 11.5081 0.473705 11.4047 0.850623 11.4181C1.50452 11.4418 2.16079 11.4213 2.81548 11.426C3.26007 11.4292 3.5103 11.636 3.51738 11.9919C3.52525 12.366 3.27344 12.5855 2.80525 12.5902C2.13718 12.5965 1.46911 12.5823 0.801049 12.5965C0.438295 12.6044 0.165246 12.49 0 12.1561V11.8404L0 11.8412Z" fill="black"/>
<path d="M24.0001 12.1569C23.849 12.4805 23.5925 12.6028 23.2408 12.5965C22.5609 12.5847 21.881 12.5965 21.2011 12.591C20.7392 12.587 20.4843 12.3645 20.4906 11.9919C20.4961 11.6367 20.7463 11.43 21.1909 11.4268C21.8574 11.4221 22.5255 11.4418 23.1912 11.4189C23.5579 11.4063 23.8246 11.5191 24.0009 11.842V12.1577L24.0001 12.1569Z" fill="black"/>
<path d="M12.1968 0C12.484 0.189424 12.5918 0.452249 12.5824 0.798737C12.5643 1.45541 12.5824 2.11365 12.5753 2.77032C12.5706 3.21784 12.3581 3.47119 12.0064 3.47277C11.6538 3.47435 11.4374 3.22336 11.4319 2.77427C11.4233 2.11681 11.4398 1.45935 11.4241 0.802684C11.4154 0.459353 11.524 0.194949 11.8041 0H12.1976L12.1968 0Z" fill="black"/>
<path d="M12.0858 5.31849C15.7708 5.34217 18.6948 8.31139 18.6626 11.9957C18.6295 15.6666 15.6669 18.5829 12.0055 18.5482C8.37011 18.5134 5.45234 15.5363 5.48539 11.8954C5.51843 8.2372 8.47083 5.2956 12.0858 5.31849ZM12.048 6.12986V17.7092C13.8264 17.8378 15.9077 16.6516 16.9188 14.8639C18.0818 12.807 18.0291 10.725 16.752 8.74391C15.6708 7.06751 14.0703 6.22931 12.048 6.13065V6.12986Z" fill="black"/>
<path d="M12.5973 22.2665C12.5973 22.6335 12.6036 23.0005 12.5949 23.3668C12.5862 23.7227 12.347 23.984 12.0354 23.9982C11.6979 24.0132 11.4492 23.8009 11.4398 23.4157C11.4201 22.6564 11.4209 21.8956 11.4398 21.1363C11.4492 20.759 11.7152 20.5159 12.0268 20.5309C12.3439 20.5467 12.5902 20.8356 12.5973 21.205C12.6012 21.3881 12.5973 21.572 12.5973 21.7551C12.5973 21.9256 12.5973 22.096 12.5973 22.2657V22.2665Z" fill="black"/>
<path d="M20.7211 3.86185C20.607 4.07337 20.5566 4.24386 20.4473 4.35751C19.9311 4.89658 19.4038 5.42618 18.8695 5.94709C18.5847 6.22491 18.2361 6.2257 17.9985 5.97866C17.7608 5.73241 17.775 5.40171 18.0606 5.10731C18.5713 4.58087 19.0749 4.04575 19.621 3.55798C19.7745 3.42065 20.0798 3.36146 20.2852 3.40644C20.4496 3.44275 20.5684 3.69137 20.7211 3.86106V3.86185Z" fill="black"/>
<path d="M3.87304 20.7373C3.72353 20.6102 3.50713 20.51 3.44104 20.3482C3.37336 20.1824 3.37572 19.8857 3.48195 19.7688C4.04615 19.1493 4.63946 18.5542 5.25087 17.9812C5.49087 17.7562 5.79933 17.8028 6.02438 18.0506C6.23527 18.2834 6.251 18.577 6.03854 18.8028C5.48143 19.3947 4.90307 19.9654 4.31999 20.5321C4.22556 20.6236 4.06818 20.6504 3.87304 20.7373Z" fill="black"/>
<path d="M3.89357 3.26367C4.10367 3.38206 4.28387 3.44205 4.4082 3.56123C4.9362 4.0703 5.45239 4.59201 5.9623 5.11924C6.23456 5.40022 6.23849 5.7617 5.99928 5.99374C5.76794 6.2179 5.42328 6.21947 5.15574 5.95981C4.61043 5.431 4.06039 4.90456 3.55836 4.33628C3.42695 4.18711 3.39548 3.8722 3.44584 3.66383C3.48361 3.50913 3.72676 3.40416 3.89436 3.26367H3.89357Z" fill="black"/>
<path d="M20.7046 20.1495C20.5819 20.3034 20.4874 20.5307 20.3293 20.5907C20.1514 20.6578 19.8438 20.6538 19.7194 20.541C19.1096 19.9869 18.5273 19.4005 17.9662 18.7959C17.7475 18.5599 17.775 18.2489 18.0198 18.0177C18.2637 17.7872 18.5611 17.7801 18.7988 18.0074C19.3763 18.5591 19.935 19.1305 20.489 19.7059C20.5811 19.8014 20.6125 19.9553 20.7046 20.1495Z" fill="black"/>
</g>
<defs>
<clipPath id="clip0_2433_2344">
<rect width="24" height="24" fill="white"/>
</clipPath>
</defs>
</svg>
