<svg width="26" height="26" viewBox="0 0 26 26" fill="none" xmlns="http://www.w3.org/2000/svg">
<path d="M9.01732 22.3886C8.42147 22.3886 7.93848 21.9056 7.93848 21.3098V11.5283H10.0962V21.3098C10.0962 21.9056 9.61316 22.3886 9.01732 22.3886Z" stroke="black" stroke-width="1.5" stroke-miterlimit="10" stroke-linejoin="round"/>
<path d="M11.5346 9.37012H6.5V10.449C6.5 11.0448 6.983 11.5278 7.57884 11.5278H10.4557C11.0516 11.5278 11.5346 11.0448 11.5346 10.449V9.37012Z" stroke="black" stroke-width="1.5" stroke-miterlimit="10" stroke-linejoin="round"/>
<path d="M9.01733 9.37103V5.05566" stroke="black" stroke-width="1.5" stroke-miterlimit="10" stroke-linecap="round" stroke-linejoin="round"/>
<path d="M11.5345 9.37103V5.05566" stroke="black" stroke-width="1.5" stroke-miterlimit="10" stroke-linecap="round" stroke-linejoin="round"/>
<path d="M6.5 9.37103V5.05566" stroke="black" stroke-width="1.5" stroke-miterlimit="10" stroke-linecap="round" stroke-linejoin="round"/>
<path d="M15.8499 11.3496V21.3099C15.8499 21.9057 16.3329 22.3887 16.9287 22.3887C17.5245 22.3887 18.0075 21.9057 18.0075 21.3099V11.3496" stroke="black" stroke-width="1.5" stroke-miterlimit="10" stroke-linecap="round"/>
<path d="M19.4461 9.01141C19.4461 10.7989 18.3191 11.5287 16.9288 11.5287C15.5385 11.5287 14.4115 10.7989 14.4115 9.01141C14.4115 7.22392 15.5385 5.05566 16.9288 5.05566C18.3191 5.05566 19.4461 7.22392 19.4461 9.01141Z" stroke="black" stroke-width="1.5" stroke-miterlimit="10" stroke-linejoin="round"/>
</svg>
