<svg width="24" height="25" viewBox="0 0 24 25" fill="none" xmlns="http://www.w3.org/2000/svg">
<path fill-rule="evenodd" clip-rule="evenodd" d="M5.00005 9.5C5.00005 7.64348 5.73755 5.86301 7.0503 4.55025C8.36306 3.2375 10.1435 2.5 12.0001 2.5C13.8566 2.5 15.637 3.2375 16.9498 4.55025C18.2626 5.86301 19.0001 7.64348 19.0001 9.5V13.264L20.8221 16.908C20.9059 17.0757 20.9455 17.2621 20.9371 17.4494C20.9287 17.6368 20.8725 17.8188 20.7739 17.9783C20.6753 18.1379 20.5376 18.2695 20.3738 18.3608C20.21 18.4521 20.0256 18.5 19.8381 18.5H15.8741C15.6516 19.3582 15.1505 20.1183 14.4493 20.6609C13.7481 21.2035 12.8867 21.4979 12.0001 21.4979C11.1135 21.4979 10.252 21.2035 9.55079 20.6609C8.84962 20.1183 8.34849 19.3582 8.12605 18.5H4.16205C3.97453 18.5 3.79011 18.4521 3.62632 18.3608C3.46252 18.2695 3.32479 18.1379 3.2262 17.9783C3.1276 17.8188 3.07143 17.6368 3.063 17.4494C3.05457 17.2621 3.09418 17.0757 3.17805 16.908L5.00005 13.264V9.5ZM10.2681 18.5C10.4436 18.804 10.6961 19.0565 11.0001 19.232C11.3041 19.4075 11.649 19.4999 12.0001 19.4999C12.3511 19.4999 12.696 19.4075 13 19.232C13.304 19.0565 13.5565 18.804 13.7321 18.5H10.2681ZM12.0001 4.5C10.674 4.5 9.4022 5.02678 8.46452 5.96447C7.52684 6.90215 7.00005 8.17392 7.00005 9.5V13.264C7.00003 13.5743 6.92779 13.8804 6.78905 14.158L5.61905 16.5H18.3821L17.2121 14.158C17.073 13.8805 17.0004 13.5744 17.0001 13.264V9.5C17.0001 8.17392 16.4733 6.90215 15.5356 5.96447C14.5979 5.02678 13.3261 4.5 12.0001 4.5Z" fill="black"/>
</svg>
