<svg width="24" height="24" viewBox="0 0 24 24" fill="none" xmlns="http://www.w3.org/2000/svg">
<g clip-path="url(#clip0_2433_2367)">
<path d="M11.5934 23.1248H5.33366C3.63247 23.1248 2.25217 21.7394 2.25217 20.0433V4.95671C2.25217 3.25552 3.63756 1.87521 5.33366 1.87521H11.6953C12.0773 1.87521 12.3829 1.56961 12.3829 1.18761C12.3829 0.805603 12.0773 0.5 11.6953 0.5H5.33366C2.87356 0.5 0.876953 2.5017 0.876953 4.95671V20.0433C0.876953 22.5034 2.87865 24.5 5.33366 24.5H11.5934C11.9754 24.5 12.281 24.1944 12.281 23.8124C12.281 23.4304 11.9703 23.1248 11.5934 23.1248Z" fill="black"/>
<path d="M22.9211 12.0159L18.551 7.64582C18.281 7.37587 17.8481 7.37587 17.5782 7.64582C17.3082 7.91577 17.3082 8.34871 17.5782 8.61866L20.7768 11.8173H6.82603C6.44403 11.8173 6.13843 12.1229 6.13843 12.5049C6.13843 12.8869 6.44403 13.1925 6.82603 13.1925H20.7768L17.5782 16.3912C17.3082 16.6611 17.3082 17.094 17.5782 17.364C17.7106 17.4964 17.8889 17.5677 18.062 17.5677C18.2352 17.5677 18.4135 17.5015 18.5459 17.364L22.916 12.9939C23.1911 12.7188 23.1911 12.2808 22.9211 12.0159Z" fill="black"/>
</g>
<defs>
<clipPath id="clip0_2433_2367">
<rect width="24" height="24" fill="white"/>
</clipPath>
</defs>
</svg>
