<svg width="24" height="24" viewBox="0 0 24 24" fill="none" xmlns="http://www.w3.org/2000/svg">
<path d="M20.6364 4.33301H3.36364C3.00227 4.33398 2.65598 4.47915 2.40046 4.7368C2.14494 4.99446 2.00096 5.34363 2 5.70801V17.6247C2 17.9893 2.14367 18.3391 2.3994 18.5969C2.65513 18.8548 3.00198 18.9997 3.36364 18.9997H20.6364C20.998 18.9997 21.3449 18.8548 21.6006 18.5969C21.8563 18.3391 22 17.9893 22 17.6247V5.70801C21.999 5.34363 21.8551 4.99446 21.5995 4.7368C21.344 4.47915 20.9977 4.33398 20.6364 4.33301ZM12 11.7305L3.65455 5.24967H20.3455L12 11.7305ZM9.41273 10.878L2.90909 17.434V5.82809L9.41273 10.878ZM10.1382 11.4418L12 12.8855L13.8618 11.4408L20.4482 18.083H3.55182L10.1382 11.4418ZM14.5873 10.8771L21.0909 5.82809V17.4349L14.5873 10.8771Z" fill="black"/>
</svg>
