<svg width="24" height="25" viewBox="0 0 24 25" fill="none" xmlns="http://www.w3.org/2000/svg">
<path d="M12.0201 20.8629C9.69011 20.8629 7.36011 20.4929 5.15011 19.7529C4.31011 19.4629 3.67011 18.8729 3.39011 18.1029C3.10011 17.3329 3.20011 16.4829 3.66011 15.7229L4.81011 13.8129C5.05011 13.4129 5.27011 12.6129 5.27011 12.1429V9.25293C5.27011 5.53293 8.30011 2.50293 12.0201 2.50293C15.7401 2.50293 18.7701 5.53293 18.7701 9.25293V12.1429C18.7701 12.6029 18.9901 13.4129 19.2301 13.8229L20.3701 15.7229C20.8001 16.4429 20.8801 17.3129 20.5901 18.1029C20.3001 18.8929 19.6701 19.4929 18.8801 19.7529C16.6801 20.4929 14.3501 20.8629 12.0201 20.8629ZM12.0201 4.00293C9.13011 4.00293 6.77011 6.35293 6.77011 9.25293V12.1429C6.77011 12.8729 6.47011 13.9529 6.10011 14.5829L4.95011 16.4929C4.73011 16.8629 4.67011 17.2529 4.80011 17.5829C4.92011 17.9229 5.22011 18.1829 5.63011 18.3229C9.81011 19.7229 14.2401 19.7229 18.4201 18.3229C18.7801 18.2029 19.0601 17.9329 19.1901 17.5729C19.3201 17.2129 19.2901 16.8229 19.0901 16.4929L17.9401 14.5829C17.5601 13.9329 17.2701 12.8629 17.2701 12.1329V9.25293C17.2701 6.35293 14.9201 4.00293 12.0201 4.00293Z" fill="black"/>
<path d="M12.02 23.1426C11.03 23.1426 10.07 22.7426 9.37002 22.0426C8.67002 21.3426 8.27002 20.3826 8.27002 19.3926H9.77002C9.77002 19.9826 10.01 20.5626 10.43 20.9826C10.85 21.4026 11.43 21.6426 12.02 21.6426C13.26 21.6426 14.27 20.6326 14.27 19.3926H15.77C15.77 21.4626 14.09 23.1426 12.02 23.1426Z" fill="black"/>
</svg>
