<svg width="24" height="24" viewBox="0 0 24 24" fill="none" xmlns="http://www.w3.org/2000/svg">
<path fill-rule="evenodd" clip-rule="evenodd" d="M6.8181 2.00028C5.26167 2.00028 4.33325 2.9287 4.33325 4.48513V19.5154C4.33325 21.0719 5.26167 22.0003 6.8181 22.0003H17.4242C18.9806 22.0003 19.909 21.0719 19.909 19.5154V9.02093C19.909 8.2735 20.0284 7.8616 19.4999 7.33308L14.3333 2.49975C13.8047 1.97124 13.6358 2.00028 12.8884 2.00028H6.8181ZM5.25244 4.48513C5.25244 3.50028 6.3397 2.87907 6.8585 2.87907H12.4141V8.24271C12.4141 9.28033 12.6289 9.1619 13.6666 9.1619H18.9898V19.5154C18.9341 20.5003 17.9026 21.1215 17.3838 21.1215H6.8585C6.3397 21.1215 5.16659 20.5003 5.25244 19.5154V4.48513ZM18.9341 8.24271L13.3333 2.93485V8.24271H18.9341Z" fill="black"/>
</svg>
