<svg width="24" height="24" viewBox="0 0 24 24" fill="none" xmlns="http://www.w3.org/2000/svg">
<path d="M7.00008 11.0003V9.16699C7.00008 6.12942 9.23866 3.66699 12.0001 3.66699C14.7615 3.66699 17.0001 6.12942 17.0001 9.16699V11.0003M3.66675 16.3337C3.66675 13.9767 3.66675 12.7982 4.39898 12.0659C5.13121 11.3337 6.30972 11.3337 8.66675 11.3337H15.3334C17.6904 11.3337 18.8689 11.3337 19.6012 12.0659C20.3334 12.7982 20.3334 13.9767 20.3334 16.3337C20.3334 18.6907 20.3334 19.8692 19.6012 20.6014C18.8689 21.3337 17.6904 21.3337 15.3334 21.3337H8.66675C6.30972 21.3337 5.13121 21.3337 4.39898 20.6014C3.66675 19.8692 3.66675 18.6907 3.66675 16.3337Z" stroke="black" stroke-width="0.833333" stroke-linecap="round"/>
</svg>
