<svg width="24" height="24" viewBox="0 0 24 24" fill="none" xmlns="http://www.w3.org/2000/svg">
<path d="M15.9167 5.54199L7.52083 10.7087M7.52083 13.9378L15.9167 18.4587M15.9167 5.54199L7.52083 10.7087M7.52083 13.9378L15.9167 18.4587M8.16667 12.0003C8.16667 13.4271 7.01007 14.5837 5.58333 14.5837C4.1566 14.5837 3 13.4271 3 12.0003C3 10.5736 4.1566 9.41699 5.58333 9.41699C7.01007 9.41699 8.16667 10.5736 8.16667 12.0003ZM21.0833 4.25033C21.0833 5.67706 19.9267 6.83366 18.5 6.83366C17.0733 6.83366 15.9167 5.67706 15.9167 4.25033C15.9167 2.82359 17.0733 1.66699 18.5 1.66699C19.9267 1.66699 21.0833 2.82359 21.0833 4.25033ZM21.0833 19.7503C21.0833 21.1771 19.9267 22.3337 18.5 22.3337C17.0733 22.3337 15.9167 21.1771 15.9167 19.7503C15.9167 18.3236 17.0733 17.167 18.5 17.167C19.9267 17.167 21.0833 18.3236 21.0833 19.7503ZM8.16667 12.0003C8.16667 13.4271 7.01007 14.5837 5.58333 14.5837C4.1566 14.5837 3 13.4271 3 12.0003C3 10.5736 4.1566 9.41699 5.58333 9.41699C7.01007 9.41699 8.16667 10.5736 8.16667 12.0003Z" stroke="black" stroke-width="0.833333" stroke-linejoin="round"/>
</svg>
