<svg width="28" height="24" viewBox="0 0 28 24" fill="none" xmlns="http://www.w3.org/2000/svg">
<path fill-rule="evenodd" clip-rule="evenodd" d="M9.82275 21.895C5.77612 18.7944 0.25 13.6725 0.25 8.82976C0.25 0.73926 7.8125 -2.28162 14 3.96638C20.1875 -2.28162 27.75 0.73926 27.75 8.82976C27.75 13.6725 22.2225 18.7944 18.1772 21.895C16.3457 23.2975 15.43 24.0001 14 24.0001C12.57 24.0001 11.6542 23.2989 9.82275 21.895ZM20.1875 5.09388C20.461 5.09388 20.7233 5.20253 20.9167 5.39593C21.1101 5.58933 21.2187 5.85163 21.2187 6.12513V7.84388H22.9375C23.211 7.84388 23.4733 7.95253 23.6667 8.14593C23.8601 8.33933 23.9687 8.60163 23.9687 8.87513C23.9687 9.14864 23.8601 9.41094 23.6667 9.60434C23.4733 9.79773 23.211 9.90638 22.9375 9.90638H21.2187V11.6251C21.2187 11.8986 21.1101 12.1609 20.9167 12.3543C20.7233 12.5477 20.461 12.6564 20.1875 12.6564C19.914 12.6564 19.6517 12.5477 19.4583 12.3543C19.2649 12.1609 19.1562 11.8986 19.1562 11.6251V9.90638H17.4375C17.164 9.90638 16.9017 9.79773 16.7083 9.60434C16.5149 9.41094 16.4062 9.14864 16.4062 8.87513C16.4062 8.60163 16.5149 8.33933 16.7083 8.14593C16.9017 7.95253 17.164 7.84388 17.4375 7.84388H19.1562V6.12513C19.1562 5.85163 19.2649 5.58933 19.4583 5.39593C19.6517 5.20253 19.914 5.09388 20.1875 5.09388Z" fill="black"/>
</svg>
