<svg width="24" height="24" viewBox="0 0 24 24" fill="none" xmlns="http://www.w3.org/2000/svg">
<path d="M11.9997 23.6668C5.55617 23.6668 0.333008 18.4437 0.333008 12.0002C0.333008 5.55666 5.55617 0.333496 11.9997 0.333496C18.4432 0.333496 23.6663 5.55666 23.6663 12.0002C23.6663 18.4437 18.4432 23.6668 11.9997 23.6668ZM11.9997 21.3335C14.475 21.3335 16.849 20.3502 18.5993 18.5998C20.3497 16.8495 21.333 14.4755 21.333 12.0002C21.333 9.52481 20.3497 7.15084 18.5993 5.4005C16.849 3.65016 14.475 2.66683 11.9997 2.66683C9.52432 2.66683 7.15035 3.65016 5.40001 5.4005C3.64967 7.15084 2.66634 9.52481 2.66634 12.0002C2.66634 14.4755 3.64967 16.8495 5.40001 18.5998C7.15035 20.3502 9.52432 21.3335 11.9997 21.3335ZM10.833 6.16683H13.1663V8.50016H10.833V6.16683ZM10.833 10.8335H13.1663V17.8335H10.833V10.8335Z" fill="black" fill-opacity="0.5"/>
</svg>
