<svg width="34" height="35" viewBox="0 0 34 35" fill="none" xmlns="http://www.w3.org/2000/svg">
<g clip-path="url(#clip0_3327_3897)">
<path d="M33.889 30.735C33.8893 31.215 33.7951 31.6903 33.6117 32.1338C33.4283 32.5773 33.1593 32.9804 32.82 33.3199C32.4808 33.6594 32.078 33.9288 31.6346 34.1126C31.1913 34.2964 30.716 34.391 30.2361 34.3911H3.65181C2.68281 34.3902 1.75381 34.0046 1.06902 33.3191C0.384235 32.6335 -0.000281899 31.704 1.55061e-07 30.735V4.15341C-0.000140769 3.1847 0.384507 2.2556 1.06934 1.57047C1.75417 0.885334 2.6831 0.500282 3.65181 0.5L30.2366 0.5C32.2554 0.5 33.8895 2.13625 33.8895 4.15341L33.889 30.735Z" fill="#EC1C24"/>
<path d="M10.8613 19.97C10.8617 20.6666 10.6819 21.2928 10.3221 21.8485C9.96191 22.4068 9.4365 22.8414 8.74269 23.1569C8.04958 23.4711 7.22862 23.6283 6.27981 23.6287C5.13975 23.6287 4.20209 23.4135 3.461 22.9832C2.94113 22.6792 2.50286 22.2536 2.18388 21.7428C1.85592 21.2257 1.69176 20.7235 1.69141 20.2361C1.69176 19.9535 1.78969 19.7107 1.98519 19.5078C2.18387 19.3059 2.43356 19.206 2.7385 19.206C2.98429 19.206 3.1929 19.2847 3.36431 19.4419C3.53378 19.5992 3.67881 19.8313 3.80047 20.1426C3.94816 20.5087 4.10541 20.8163 4.27647 21.0612C4.447 21.3093 4.68872 21.5122 4.99684 21.671C5.30674 21.8325 5.71368 21.9131 6.21766 21.9128C6.91041 21.9128 7.47247 21.7514 7.90384 21.4288C8.33681 21.1063 8.55569 20.702 8.55569 20.2191C8.55569 19.8373 8.43881 19.5267 8.20506 19.2873C7.97184 19.0493 7.6685 18.8671 7.29928 18.7412C6.92882 18.614 6.43441 18.4798 5.81603 18.3385C4.98728 18.1444 4.29329 17.9178 3.73406 17.6585C3.17412 17.3982 2.73266 17.0444 2.40487 16.596C2.07585 16.1476 1.91134 15.5902 1.91134 14.9236C1.91099 14.2893 2.08435 13.7251 2.43144 13.2311C2.77675 12.7388 3.27754 12.3598 3.93381 12.0942C4.59079 11.8293 5.36234 11.6966 6.24847 11.6963C6.9568 11.6966 7.56898 11.7845 8.085 11.9598C8.60244 12.1365 9.03204 12.3701 9.37381 12.6605C9.71523 12.9523 9.96403 13.258 10.1202 13.5774C10.2792 13.8976 10.3584 14.21 10.3577 14.5146C10.3573 14.7919 10.2592 15.0428 10.0634 15.2674C9.86504 15.4894 9.61943 15.6008 9.32653 15.6015C9.05984 15.6015 8.85478 15.534 8.71666 15.3996C8.57588 15.2674 8.42712 15.0474 8.2635 14.7441C8.05313 14.3069 7.80344 13.9674 7.50806 13.7251C7.21322 13.4808 6.74306 13.3575 6.09122 13.3575C5.48807 13.3579 5.00162 13.4905 4.63188 13.7554C4.26372 14.021 4.07619 14.3409 4.07619 14.7111C4.07619 14.9444 4.14047 15.142 4.26531 15.3099C4.39104 15.4788 4.56423 15.6235 4.78487 15.7439C4.99771 15.8612 5.22201 15.9565 5.45425 16.0281C5.68056 16.0947 6.05315 16.194 6.572 16.3261C7.16884 16.4631 7.7581 16.6312 8.33734 16.8298C8.86647 17.013 9.31378 17.2367 9.68459 17.4991C10.0495 17.7563 10.3466 18.0981 10.5505 18.4952C10.7574 18.8961 10.861 19.3879 10.8613 19.9705M16.7715 11.6989C17.9668 11.6989 18.9939 11.9419 19.8527 12.4278C20.7098 12.9137 21.3586 13.6035 21.7992 14.497C22.2402 15.3927 22.4608 16.4434 22.4612 17.6489C22.4608 18.5425 22.3404 19.3534 22.0999 20.0815C21.8571 20.8104 21.4959 21.4431 21.0119 21.9792C20.5301 22.5157 19.9372 22.9221 19.2338 23.2058C18.5301 23.4895 17.7247 23.6314 16.8177 23.6314C15.9146 23.6314 15.1062 23.4861 14.3925 23.1957C13.6782 22.9042 13.0832 22.4931 12.6075 21.9622C12.1298 21.4337 11.7689 20.7962 11.5248 20.0497C11.2821 19.3059 11.1583 18.5011 11.1583 17.6346C11.1583 16.749 11.2863 15.9335 11.5402 15.1935C11.7949 14.4537 12.1634 13.8243 12.6458 13.3054C13.1266 12.7848 13.7189 12.388 14.409 12.1123C15.1017 11.8364 15.8892 11.6986 16.7715 11.6989ZM20.0934 17.6341C20.0934 16.7878 19.9568 16.0573 19.6832 15.4368C19.4091 14.8184 19.0213 14.3504 18.5134 14.0327C18.008 13.715 17.4276 13.5564 16.772 13.5567C16.3045 13.5571 15.8726 13.6449 15.4763 13.8202C15.0822 13.9958 14.7328 14.258 14.4542 14.5874C14.1676 14.9227 13.9419 15.352 13.7768 15.8751C13.6114 16.3968 13.5289 16.9831 13.5292 17.6341C13.5292 18.2886 13.6116 18.8836 13.7768 19.4111C13.9422 19.9409 14.1756 20.3808 14.477 20.7307C14.7612 21.0656 15.1165 21.3328 15.5172 21.5127C15.9082 21.687 16.3367 21.7737 16.8028 21.773C17.3835 21.7783 17.9544 21.6229 18.4523 21.3241C18.9538 21.0256 19.3526 20.5637 19.6487 19.9386C19.9436 19.3155 20.0934 18.5473 20.0934 17.6341ZM32.0768 19.97C32.0768 20.6666 31.8969 21.2928 31.537 21.8485C31.1779 22.4068 30.6525 22.8414 29.9592 23.1569C29.2665 23.4711 28.4453 23.6283 27.4958 23.6287C26.3557 23.6287 25.4186 23.4135 24.6791 22.9832C24.1581 22.6797 23.7187 22.2539 23.3988 21.7428C23.0716 21.2257 22.9078 20.7235 22.9074 20.2361C22.9074 19.9535 23.0053 19.7107 23.2012 19.5078C23.3992 19.3063 23.6499 19.2057 23.9534 19.206C24.2003 19.206 24.4093 19.2847 24.5803 19.4419C24.7503 19.5985 24.8957 19.832 25.0165 20.1426C25.162 20.5087 25.3225 20.8163 25.4914 21.0612C25.663 21.3093 25.9015 21.5122 26.2123 21.671C26.5211 21.8325 26.9283 21.9131 27.4337 21.9128C28.1264 21.9128 28.6885 21.7514 29.1198 21.4288C29.5533 21.1058 29.7703 20.7026 29.7706 20.2191C29.7706 19.8373 29.6537 19.5267 29.42 19.2873C29.1873 19.0493 28.8834 18.8671 28.5169 18.7412C28.1457 18.614 27.6509 18.4798 27.0326 18.3385C26.2038 18.1444 25.5095 17.9178 24.9495 17.6585C24.3901 17.3982 23.9487 17.0444 23.6198 16.596C23.2911 16.1476 23.127 15.5902 23.1273 14.9236C23.127 14.2893 23.3005 13.7251 23.648 13.2311C23.9922 12.7388 24.4932 12.3598 25.1509 12.0942C25.8054 11.8296 26.5783 11.6963 27.4639 11.6963C28.1742 11.6963 28.7846 11.785 29.3037 11.9598C29.8197 12.1365 30.2486 12.3701 30.5903 12.6605C30.9303 12.9523 31.1786 13.258 31.3352 13.5774C31.4956 13.8973 31.5726 14.2102 31.5726 14.5146C31.5726 14.7919 31.4747 15.0428 31.2788 15.2674C31.1879 15.3736 31.0747 15.4586 30.9473 15.5163C30.8199 15.574 30.6813 15.6031 30.5415 15.6015C30.2753 15.6015 30.0697 15.534 29.9316 15.3996C29.7917 15.2668 29.6412 15.0483 29.48 14.7441C29.2686 14.3069 29.02 13.9674 28.7219 13.7251C28.4287 13.4804 27.9568 13.3579 27.3062 13.3575C26.702 13.3579 26.2148 13.4905 25.8447 13.7554C25.4771 14.0217 25.2929 14.3403 25.2922 14.7111C25.2922 14.9444 25.3533 15.142 25.4813 15.3099C25.6067 15.4788 25.7792 15.6235 25.9987 15.7439C26.2124 15.8603 26.4369 15.9555 26.6692 16.0281C26.8944 16.0945 27.269 16.1939 27.7853 16.3261C28.3829 16.463 28.9729 16.6311 29.5528 16.8298C30.0798 17.0132 30.5287 17.2363 30.8995 17.4991C31.2647 17.7556 31.5615 18.0976 31.7639 18.4952C31.9728 18.8961 32.0771 19.3879 32.0768 19.9705" fill="white"/>
</g>
<defs>
<clipPath id="clip0_3327_3897">
<rect width="34" height="34" fill="white" transform="translate(0 0.5)"/>
</clipPath>
</defs>
</svg>
