<svg width="25" height="17" viewBox="0 0 25 17" fill="none" xmlns="http://www.w3.org/2000/svg">
<path d="M16.4067 8.49954C16.4067 9.27212 16.1776 10.0274 15.7484 10.6697C15.3192 11.3121 14.7091 11.8128 13.9953 12.1084C13.2816 12.4041 12.4962 12.4815 11.7384 12.3307C10.9807 12.18 10.2846 11.808 9.73835 11.2617C9.19205 10.7154 8.82002 10.0193 8.66929 9.26161C8.51857 8.50387 8.59593 7.71845 8.89158 7.00468C9.18724 6.29091 9.68791 5.68083 10.3303 5.25161C10.9727 4.82239 11.7279 4.59329 12.5005 4.59329C13.5365 4.59329 14.5301 5.00484 15.2626 5.7374C15.9952 6.46997 16.4067 7.46354 16.4067 8.49954ZM20.313 8.49954C20.3153 6.57753 19.6068 4.72255 18.3237 3.29153C18.2558 3.21322 18.1731 3.1492 18.0802 3.1032C17.9873 3.05719 17.8862 3.03013 17.7828 3.02358C17.6793 3.01704 17.5756 3.03113 17.4777 3.06505C17.3798 3.09898 17.2896 3.15204 17.2124 3.22117C17.1351 3.29029 17.0724 3.37409 17.0279 3.46768C16.9834 3.56127 16.9579 3.66279 16.953 3.76631C16.9481 3.86984 16.9639 3.9733 16.9994 4.07068C17.0348 4.16806 17.0893 4.25741 17.1597 4.33352C18.1845 5.47938 18.751 6.96274 18.751 8.50003C18.751 10.0373 18.1845 11.5207 17.1597 12.6665C17.0254 12.8215 16.9573 13.023 16.9703 13.2276C16.9832 13.4323 17.0761 13.6236 17.2289 13.7604C17.3817 13.8971 17.5821 13.9683 17.7869 13.9586C17.9918 13.9489 18.1846 13.8591 18.3237 13.7085C19.6066 12.277 20.315 10.4218 20.313 8.49954ZM7.84131 4.33352C7.91165 4.25741 7.96615 4.16806 8.00162 4.07068C8.03709 3.9733 8.05284 3.86984 8.04794 3.76631C8.04303 3.66279 8.01758 3.56127 7.97306 3.46768C7.92854 3.37409 7.86584 3.29029 7.78862 3.22117C7.7114 3.15204 7.6212 3.09898 7.52326 3.06505C7.42533 3.03113 7.32163 3.01704 7.2182 3.02358C7.11476 3.03013 7.01367 3.05719 6.9208 3.1032C6.82792 3.1492 6.74513 3.21322 6.67725 3.29153C5.39482 4.72331 4.68569 6.57789 4.68569 8.50003C4.68569 10.4222 5.39482 12.2767 6.67725 13.7085C6.81642 13.8591 7.00921 13.9489 7.21403 13.9586C7.41885 13.9683 7.61927 13.8971 7.77205 13.7604C7.92484 13.6236 8.01772 13.4323 8.03068 13.2276C8.04364 13.023 7.97562 12.8215 7.84131 12.6665C6.81549 11.5212 6.24826 10.0376 6.24826 8.50003C6.24826 6.96244 6.81549 5.47889 7.84131 4.33352ZM23.2983 3.9429C22.7265 2.58505 21.9028 1.34776 20.8706 0.296413C20.7995 0.220347 20.7138 0.159275 20.6187 0.116788C20.5236 0.0743005 20.421 0.0512561 20.3169 0.0490099C20.2128 0.0467636 20.1092 0.0653606 20.0124 0.103708C19.9156 0.142055 19.8274 0.199377 19.753 0.272304C19.6786 0.345232 19.6196 0.432291 19.5794 0.528363C19.5392 0.624435 19.5186 0.72758 19.5188 0.831732C19.519 0.935885 19.54 1.03894 19.5807 1.13484C19.6213 1.23074 19.6807 1.31755 19.7554 1.39016C21.6174 3.28727 22.6606 5.83935 22.6606 8.49758C22.6606 11.1558 21.6174 13.7079 19.7554 15.605C19.6833 15.6782 19.6264 15.7649 19.5878 15.8602C19.5492 15.9554 19.5298 16.0573 19.5306 16.16C19.5314 16.2628 19.5525 16.3644 19.5925 16.459C19.6326 16.5536 19.6909 16.6394 19.7642 16.7115C19.8374 16.7835 19.9241 16.8405 20.0193 16.879C20.1146 16.9176 20.2165 16.937 20.3192 16.9362C20.4219 16.9354 20.5235 16.9143 20.6181 16.8743C20.7127 16.8342 20.7985 16.7759 20.8706 16.7027C22.488 15.051 23.5813 12.9582 24.0133 10.6872C24.4452 8.41616 24.1965 6.06814 23.2983 3.93801V3.9429ZM3.14209 12.4527C2.36147 10.6073 2.14466 8.57222 2.51901 6.60386C2.89335 4.63551 3.84209 2.82205 5.2456 1.39212C5.3909 1.24423 5.4715 1.04467 5.46967 0.837359C5.46784 0.630044 5.38373 0.431947 5.23584 0.286648C5.08795 0.141349 4.8884 0.0607493 4.68108 0.0625807C4.47377 0.0644121 4.27567 0.148524 4.13037 0.296413C1.98016 2.48541 0.775391 5.43114 0.775391 8.49954C0.775391 11.5679 1.98016 14.5137 4.13037 16.7027C4.20152 16.7787 4.28715 16.8398 4.38225 16.8823C4.47734 16.9248 4.57997 16.9478 4.68409 16.9501C4.78822 16.9523 4.89175 16.9337 4.98858 16.8954C5.08542 16.857 5.17361 16.7997 5.24797 16.7268C5.32233 16.6538 5.38136 16.5668 5.42158 16.4707C5.4618 16.3746 5.48241 16.2715 5.48219 16.1673C5.48197 16.0632 5.46093 15.9601 5.4203 15.8642C5.37967 15.7683 5.32027 15.6815 5.2456 15.6089C4.35172 14.6988 3.63801 13.6279 3.14209 12.4527Z" fill="#EE7571"/>
</svg>
