<svg width="24" height="29" viewBox="0 0 24 29" fill="none" xmlns="http://www.w3.org/2000/svg">
<path d="M21.6578 12.9902H15.2246V22.6399H21.6578" stroke="#4DA880" stroke-width="1.4" stroke-miterlimit="10" stroke-linecap="round" stroke-linejoin="round"/>
<path d="M18.4414 16.207H21.658" stroke="#4DA880" stroke-width="1.4" stroke-miterlimit="10" stroke-linecap="round" stroke-linejoin="round"/>
<path d="M18.4414 19.4238H21.658" stroke="#4DA880" stroke-width="1.4" stroke-miterlimit="10" stroke-linecap="round" stroke-linejoin="round"/>
<path d="M6.37891 22.6396V27.4645" stroke="#4DA880" stroke-width="1.4" stroke-miterlimit="10" stroke-linecap="round" stroke-linejoin="round"/>
<path d="M3.16244 27.4645H9.59561C10.9279 27.4645 12.0081 26.3844 12.0081 25.0521C12.0081 23.7198 10.9279 22.6396 9.59561 22.6396H3.16244C1.83011 22.6396 0.75 23.7198 0.75 25.0521C0.750053 26.3844 1.83011 27.4645 3.16244 27.4645Z" stroke="#4DA880" stroke-width="1.4" stroke-miterlimit="10" stroke-linecap="round" stroke-linejoin="round"/>
<path d="M23.2665 1.625H7.18359V6.50346H23.2665V1.625Z" stroke="#4DA880" stroke-width="1.4" stroke-miterlimit="10" stroke-linecap="round" stroke-linejoin="round"/>
<path d="M8.79102 6.50391V22.5418" stroke="#4DA880" stroke-width="1.4" stroke-miterlimit="10" stroke-linecap="round" stroke-linejoin="round"/>
<path d="M10.0391 27.4246C10.1551 27.4512 10.2758 27.4653 10.3999 27.4653H20.0497C20.9379 27.4653 21.658 26.7453 21.658 25.857V6.50391" stroke="#4DA880" stroke-width="1.4" stroke-miterlimit="10" stroke-linecap="round" stroke-linejoin="round"/>
<path d="M16.833 1.625V6.50346" stroke="#4DA880" stroke-width="1.4" stroke-miterlimit="10" stroke-linecap="round" stroke-linejoin="round"/>
<path d="M20.0498 1.625V6.50346" stroke="#4DA880" stroke-width="1.4" stroke-miterlimit="10" stroke-linecap="round" stroke-linejoin="round"/>
<path d="M13.6162 1.625V6.50346" stroke="#4DA880" stroke-width="1.4" stroke-miterlimit="10" stroke-linecap="round" stroke-linejoin="round"/>
<path d="M10.3994 1.625V6.50346" stroke="#4DA880" stroke-width="1.4" stroke-miterlimit="10" stroke-linecap="round" stroke-linejoin="round"/>
</svg>
