<svg width="20" height="26" viewBox="0 0 20 26" fill="none" xmlns="http://www.w3.org/2000/svg">
<path d="M4.48597 25.0002C3.66095 25.0002 2.99219 24.3314 2.99219 23.5064V9.96289H5.97975V23.5065C5.97975 24.3314 5.31098 25.0002 4.48597 25.0002Z" stroke="#3AD3D3" stroke-width="1.5" stroke-miterlimit="10" stroke-linejoin="round"/>
<path d="M7.97097 6.97559H1V8.46937C1 9.29438 1.66877 9.96314 2.49378 9.96314H6.47719C7.3022 9.96314 7.97097 9.29438 7.97097 8.46937V6.97559Z" stroke="#3AD3D3" stroke-width="1.5" stroke-miterlimit="10" stroke-linejoin="round"/>
<path d="M4.48535 6.97512V1" stroke="#3AD3D3" stroke-width="1.5" stroke-miterlimit="10" stroke-linecap="round" stroke-linejoin="round"/>
<path d="M7.9707 6.97512V1" stroke="#3AD3D3" stroke-width="1.5" stroke-miterlimit="10" stroke-linecap="round" stroke-linejoin="round"/>
<path d="M1 6.97512V1" stroke="#3AD3D3" stroke-width="1.5" stroke-miterlimit="10" stroke-linecap="round" stroke-linejoin="round"/>
<path d="M13.9453 9.71484V23.506C13.9453 24.331 14.6141 24.9998 15.4391 24.9998C16.2641 24.9998 16.9329 24.331 16.9329 23.506V9.71484" stroke="#3AD3D3" stroke-width="1.5" stroke-miterlimit="10" stroke-linecap="round"/>
<path d="M18.9251 6.47719C18.9251 8.95218 17.3646 9.96268 15.4396 9.96268C13.5146 9.96268 11.9541 8.95218 11.9541 6.47719C11.9541 4.0022 13.5146 1 15.4396 1C17.3646 1 18.9251 4.0022 18.9251 6.47719Z" stroke="#3AD3D3" stroke-width="1.5" stroke-miterlimit="10" stroke-linejoin="round"/>
</svg>
