<svg width="25" height="26" viewBox="0 0 25 26" fill="none" xmlns="http://www.w3.org/2000/svg">
<path d="M19.2069 12.2988H14.7394V19H19.2069" stroke="black" stroke-width="1.4" stroke-miterlimit="10" stroke-linecap="round" stroke-linejoin="round"/>
<path d="M16.973 14.5332H19.2068" stroke="black" stroke-width="1.4" stroke-miterlimit="10" stroke-linecap="round" stroke-linejoin="round"/>
<path d="M16.973 16.7666H19.2068" stroke="black" stroke-width="1.4" stroke-miterlimit="10" stroke-linecap="round" stroke-linejoin="round"/>
<path d="M8.59656 18.999V22.3496" stroke="black" stroke-width="1.4" stroke-miterlimit="10" stroke-linecap="round" stroke-linejoin="round"/>
<path d="M6.36281 22.3496H10.8303C11.7555 22.3496 12.5056 21.5996 12.5056 20.6743C12.5056 19.7491 11.7555 18.999 10.8303 18.999H6.36281C5.43757 18.999 4.6875 19.7491 4.6875 20.6743C4.68754 21.5996 5.43757 22.3496 6.36281 22.3496Z" stroke="black" stroke-width="1.4" stroke-miterlimit="10" stroke-linecap="round" stroke-linejoin="round"/>
<path d="M20.3237 4.40625H9.15503V7.79407H20.3237V4.40625Z" stroke="black" stroke-width="1.4" stroke-miterlimit="10" stroke-linecap="round" stroke-linejoin="round"/>
<path d="M10.2719 7.79297V18.9304" stroke="black" stroke-width="1.4" stroke-miterlimit="10" stroke-linecap="round" stroke-linejoin="round"/>
<path d="M11.1381 22.3213C11.2186 22.3397 11.3025 22.3495 11.3887 22.3495H18.0899C18.7067 22.3495 19.2068 21.8495 19.2068 21.2326V7.79297" stroke="black" stroke-width="1.4" stroke-miterlimit="10" stroke-linecap="round" stroke-linejoin="round"/>
<path d="M15.8562 4.40625V7.79407" stroke="black" stroke-width="1.4" stroke-miterlimit="10" stroke-linecap="round" stroke-linejoin="round"/>
<path d="M18.09 4.40625V7.79407" stroke="black" stroke-width="1.4" stroke-miterlimit="10" stroke-linecap="round" stroke-linejoin="round"/>
<path d="M13.6224 4.40625V7.79407" stroke="black" stroke-width="1.4" stroke-miterlimit="10" stroke-linecap="round" stroke-linejoin="round"/>
<path d="M11.3887 4.40625V7.79407" stroke="black" stroke-width="1.4" stroke-miterlimit="10" stroke-linecap="round" stroke-linejoin="round"/>
</svg>
