<svg width="26" height="26" viewBox="0 0 26 26" fill="none" xmlns="http://www.w3.org/2000/svg">
<path d="M7.58301 7.58301H6.49967C5.92504 7.58301 5.37394 7.81128 4.96761 8.21761C4.56128 8.62394 4.33301 9.17504 4.33301 9.74967V19.4997C4.33301 20.0743 4.56128 20.6254 4.96761 21.0317C5.37394 21.4381 5.92504 21.6663 6.49967 21.6663H16.2497C16.8243 21.6663 17.3754 21.4381 17.7817 21.0317C18.1881 20.6254 18.4163 20.0743 18.4163 19.4997V18.4163" stroke="black" stroke-width="1.5" stroke-linecap="round" stroke-linejoin="round"/>
<path d="M17.3333 5.41678L20.5833 8.66678M22.0837 7.13387C22.5104 6.7072 22.7501 6.12851 22.7501 5.52512C22.7501 4.92172 22.5104 4.34303 22.0837 3.91637C21.6571 3.4897 21.0784 3.25 20.475 3.25C19.8716 3.25 19.2929 3.4897 18.8663 3.91637L9.75 13.0001V16.2501H13L22.0837 7.13387Z" stroke="black" stroke-width="1.5" stroke-linecap="round" stroke-linejoin="round"/>
</svg>
