<svg width="20" height="20" viewBox="0 0 20 20" fill="none" xmlns="http://www.w3.org/2000/svg">
<g clip-path="url(#clip0_2634_1694)">
<path d="M10 12.5C11.3807 12.5 12.5 11.3807 12.5 10C12.5 8.61929 11.3807 7.5 10 7.5C8.61929 7.5 7.5 8.61929 7.5 10C7.5 11.3807 8.61929 12.5 10 12.5Z" stroke="#CBCBD4" stroke-width="2" stroke-linecap="round" stroke-linejoin="round"/>
<path d="M16.1663 12.5002C16.0554 12.7515 16.0223 13.0303 16.0713 13.3007C16.1204 13.571 16.2492 13.8204 16.4413 14.0168L16.4913 14.0668C16.6463 14.2216 16.7692 14.4054 16.8531 14.6078C16.937 14.8101 16.9802 15.027 16.9802 15.246C16.9802 15.465 16.937 15.6819 16.8531 15.8842C16.7692 16.0866 16.6463 16.2704 16.4913 16.4252C16.3366 16.5801 16.1527 16.7031 15.9504 16.7869C15.7481 16.8708 15.5312 16.914 15.3122 16.914C15.0932 16.914 14.8763 16.8708 14.6739 16.7869C14.4716 16.7031 14.2878 16.5801 14.133 16.4252L14.083 16.3752C13.8866 16.1831 13.6372 16.0542 13.3668 16.0052C13.0965 15.9561 12.8177 15.9892 12.5663 16.1002C12.3199 16.2058 12.1097 16.3812 11.9616 16.6048C11.8135 16.8284 11.7341 17.0903 11.733 17.3585V17.5002C11.733 17.9422 11.5574 18.3661 11.2449 18.6787C10.9323 18.9912 10.5084 19.1668 10.0663 19.1668C9.62431 19.1668 9.20039 18.9912 8.88783 18.6787C8.57527 18.3661 8.39968 17.9422 8.39968 17.5002V17.4252C8.39322 17.1493 8.30394 16.8818 8.14343 16.6574C7.98293 16.433 7.75862 16.2621 7.49968 16.1668C7.24833 16.0559 6.96951 16.0228 6.69918 16.0718C6.42886 16.1208 6.17941 16.2497 5.98301 16.4418L5.93301 16.4918C5.77822 16.6468 5.59441 16.7697 5.39208 16.8536C5.18975 16.9375 4.97287 16.9806 4.75384 16.9806C4.53482 16.9806 4.31794 16.9375 4.11561 16.8536C3.91328 16.7697 3.72946 16.6468 3.57467 16.4918C3.41971 16.337 3.29678 16.1532 3.21291 15.9509C3.12903 15.7486 3.08586 15.5317 3.08586 15.3127C3.08586 15.0936 3.12903 14.8768 3.21291 14.6744C3.29678 14.4721 3.41971 14.2883 3.57467 14.1335L3.62467 14.0835C3.81679 13.8871 3.94566 13.6377 3.99468 13.3673C4.04369 13.097 4.0106 12.8182 3.89967 12.5668C3.79404 12.3204 3.61864 12.1101 3.39506 11.9621C3.17149 11.814 2.9095 11.7346 2.64134 11.7335H2.49967C2.05765 11.7335 1.63372 11.5579 1.32116 11.2453C1.0086 10.9328 0.833008 10.5089 0.833008 10.0668C0.833008 9.6248 1.0086 9.20088 1.32116 8.88832C1.63372 8.57576 2.05765 8.40016 2.49967 8.40016H2.57467C2.8505 8.39371 3.11801 8.30443 3.34242 8.14392C3.56684 7.98342 3.73777 7.75911 3.83301 7.50016C3.94394 7.24882 3.97703 6.97 3.92801 6.69967C3.879 6.42934 3.75012 6.1799 3.55801 5.9835L3.50801 5.9335C3.35305 5.77871 3.23012 5.59489 3.14624 5.39256C3.06237 5.19023 3.0192 4.97336 3.0192 4.75433C3.0192 4.5353 3.06237 4.31843 3.14624 4.1161C3.23012 3.91377 3.35305 3.72995 3.50801 3.57516C3.6628 3.4202 3.84661 3.29727 4.04894 3.2134C4.25127 3.12952 4.46815 3.08635 4.68717 3.08635C4.9062 3.08635 5.12308 3.12952 5.32541 3.2134C5.52774 3.29727 5.71155 3.4202 5.86634 3.57516L5.91634 3.62516C6.11274 3.81728 6.36219 3.94615 6.63252 3.99517C6.90285 4.04418 7.18166 4.01109 7.43301 3.90016H7.49968C7.74615 3.79453 7.95636 3.61913 8.10442 3.39555C8.25248 3.17198 8.33194 2.90999 8.33301 2.64183V2.50016C8.33301 2.05814 8.5086 1.63421 8.82116 1.32165C9.13373 1.00909 9.55765 0.833496 9.99968 0.833496C10.4417 0.833496 10.8656 1.00909 11.1782 1.32165C11.4907 1.63421 11.6663 2.05814 11.6663 2.50016V2.57516C11.6674 2.84332 11.7469 3.10531 11.8949 3.32888C12.043 3.55246 12.2532 3.72786 12.4997 3.8335C12.751 3.94443 13.0298 3.97752 13.3002 3.9285C13.5705 3.87948 13.8199 3.75061 14.0163 3.5585L14.0663 3.5085C14.2211 3.35354 14.4049 3.2306 14.6073 3.14673C14.8096 3.06286 15.0265 3.01969 15.2455 3.01969C15.4645 3.01969 15.6814 3.06286 15.8837 3.14673C16.0861 3.2306 16.2699 3.35354 16.4247 3.5085C16.5796 3.66328 16.7026 3.8471 16.7864 4.04943C16.8703 4.25176 16.9135 4.46864 16.9135 4.68766C16.9135 4.90669 16.8703 5.12357 16.7864 5.3259C16.7026 5.52823 16.5796 5.71204 16.4247 5.86683L16.3747 5.91683C16.1826 6.11323 16.0537 6.36268 16.0047 6.63301C15.9557 6.90334 15.9887 7.18215 16.0997 7.4335V7.50016C16.2053 7.74664 16.3807 7.95684 16.6043 8.10491C16.8279 8.25297 17.0899 8.33243 17.358 8.3335H17.4997C17.9417 8.3335 18.3656 8.50909 18.6782 8.82165C18.9907 9.13421 19.1663 9.55814 19.1663 10.0002C19.1663 10.4422 18.9907 10.8661 18.6782 11.1787C18.3656 11.4912 17.9417 11.6668 17.4997 11.6668H17.4247C17.1565 11.6679 16.8945 11.7474 16.671 11.8954C16.4474 12.0435 16.272 12.2537 16.1663 12.5002Z" stroke="#CBCBD4" stroke-width="2" stroke-linecap="round" stroke-linejoin="round"/>
</g>
<defs>
<clipPath id="clip0_2634_1694">
<rect width="20" height="20" fill="white"/>
</clipPath>
</defs>
</svg>
