<svg width="28" height="28" viewBox="0 0 28 28" fill="none" xmlns="http://www.w3.org/2000/svg">
<path d="M1.08301 13.4998C1.08301 8.62896 1.08301 6.19288 2.59684 4.68034C4.11067 3.1678 6.54547 3.1665 11.4163 3.1665H16.583C21.4539 3.1665 23.89 3.1665 25.4025 4.68034C26.915 6.19417 26.9163 8.62896 26.9163 13.4998V16.0832C26.9163 20.954 26.9163 23.3901 25.4025 24.9027C23.8887 26.4152 21.4539 26.4165 16.583 26.4165H11.4163C6.54547 26.4165 4.10938 26.4165 2.59684 24.9027C1.0843 23.3888 1.08301 20.954 1.08301 16.0832V13.4998Z" stroke="black" stroke-width="2"/>
<path d="M21.7493 18.6665H19.166M19.166 18.6665H16.5827M19.166 18.6665V16.0832M19.166 18.6665V21.2498M7.54102 3.1665V1.229M20.4577 3.1665V1.229M1.72852 9.62484H26.2702" stroke="black" stroke-width="2" stroke-linecap="round"/>
</svg>
