<svg width="54" height="68" viewBox="0 0 54 68" fill="none" xmlns="http://www.w3.org/2000/svg">
<path fill-rule="evenodd" clip-rule="evenodd" d="M26.9997 0.666504C23.4635 0.666504 20.0721 2.07126 17.5716 4.57175C15.0711 7.07223 13.6663 10.4636 13.6663 13.9998V30.6665C13.6663 34.2027 15.0711 37.5941 17.5716 40.0946C20.0721 42.5951 23.4635 43.9998 26.9997 43.9998C30.5359 43.9998 33.9273 42.5951 36.4278 40.0946C38.9282 37.5941 40.333 34.2027 40.333 30.6665V13.9998C40.333 10.4636 38.9282 7.07223 36.4278 4.57175C33.9273 2.07126 30.5359 0.666504 26.9997 0.666504ZM3.66634 27.3332C4.5504 27.3332 5.39824 27.6844 6.02336 28.3095C6.64848 28.9346 6.99967 29.7824 6.99967 30.6665C6.99967 35.9708 9.10681 41.0579 12.8575 44.8086C16.6083 48.5594 21.6953 50.6665 26.9997 50.6665C32.304 50.6665 37.3911 48.5594 41.1418 44.8086C44.8925 41.0579 46.9997 35.9708 46.9997 30.6665C46.9997 29.7824 47.3509 28.9346 47.976 28.3095C48.6011 27.6844 49.449 27.3332 50.333 27.3332C51.2171 27.3332 52.0649 27.6844 52.69 28.3095C53.3152 28.9346 53.6663 29.7824 53.6663 30.6665C53.6669 37.1621 51.2967 43.4345 47.0005 48.3064C42.7043 53.1783 36.7776 56.3146 30.333 57.1265V63.9998C30.333 64.8839 29.9818 65.7317 29.3567 66.3569C28.7316 66.982 27.8837 67.3332 26.9997 67.3332C26.1156 67.3332 25.2678 66.982 24.6427 66.3569C24.0175 65.7317 23.6663 64.8839 23.6663 63.9998V57.1265C17.2217 56.3146 11.295 53.1783 6.99885 48.3064C2.70267 43.4345 0.332402 37.1621 0.333008 30.6665C0.333008 29.7824 0.684198 28.9346 1.30932 28.3095C1.93444 27.6844 2.78229 27.3332 3.66634 27.3332Z" fill="black"/>
</svg>
