<svg width="22" height="21" viewBox="0 0 22 21" fill="none" xmlns="http://www.w3.org/2000/svg">
<path d="M4.6 17.9953L6.124 16.7705L6.134 16.7625C6.452 16.5063 6.613 16.3777 6.792 16.2862C6.95267 16.2038 7.122 16.1442 7.3 16.1074C7.499 16.0662 7.706 16.0662 8.122 16.0662H16.803C17.921 16.0662 18.481 16.0662 18.908 15.8472C19.2843 15.6545 19.5903 15.3471 19.782 14.969C20 14.539 20 13.9764 20 12.8551V5.21212C20 4.08883 20 3.52618 19.782 3.09716C19.59 2.71892 19.2837 2.41151 18.907 2.21903C18.48 2 17.92 2 16.8 2H5.2C4.08 2 3.52 2 3.092 2.21903C2.71569 2.41168 2.40974 2.71908 2.218 3.09716C2 3.52719 2 4.08983 2 5.21513V16.7404C2 17.8114 2 18.3469 2.218 18.6212C2.31174 18.7395 2.43083 18.8349 2.56641 18.9005C2.70198 18.9661 2.85053 19.0001 3.001 19C3.351 19 3.767 18.6644 4.6 17.9953Z" stroke="#727275" stroke-width="2.5" stroke-linecap="round" stroke-linejoin="round"/>
</svg>
