<svg width="30" height="30" viewBox="0 0 30 30" fill="none" xmlns="http://www.w3.org/2000/svg">
<g clip-path="url(#clip0_2283_1363)">
<path d="M20.9662 0.0150131C20.9025 -0.0562368 18.6056 0.0431382 16.6069 2.21251C14.6081 4.38001 14.9156 6.86626 14.9606 6.93001C15.0056 6.99376 17.8106 7.09314 19.6012 4.57126C21.3919 2.04939 21.03 0.0881381 20.9662 0.0150131ZM27.18 22.0144C27.09 21.8344 22.8206 19.7006 23.2181 15.5981C23.6156 11.4938 26.3587 10.3688 26.4019 10.2469C26.445 10.125 25.2825 8.76564 24.0506 8.07751C23.1461 7.59236 22.1451 7.3144 21.12 7.26376C20.9175 7.25814 20.2144 7.08564 18.7687 7.48126C17.8162 7.74189 15.6694 8.58564 15.0787 8.61939C14.4862 8.65314 12.7237 7.64064 10.8281 7.37251C9.61498 7.13814 8.32873 7.61814 7.40811 7.98751C6.48936 8.35501 4.74186 9.40126 3.51936 12.1819C2.29686 14.9606 2.93623 19.3631 3.39373 20.7319C3.85123 22.0988 4.56561 24.3394 5.78061 25.9744C6.86061 27.8194 8.29311 29.1 8.89123 29.535C9.48936 29.97 11.1769 30.2588 12.3469 29.6606C13.2881 29.0831 14.9869 28.7513 15.6581 28.7756C16.3275 28.8 17.6475 29.0644 18.9994 29.7863C20.07 30.1556 21.0825 30.0019 22.0969 29.5894C23.1112 29.175 24.5794 27.6038 26.2931 24.4181C26.9437 22.9369 27.24 22.1363 27.18 22.0144Z" fill="black"/>
<path d="M20.9662 0.0150131C20.9025 -0.0562368 18.6056 0.0431382 16.6069 2.21251C14.6081 4.38001 14.9156 6.86626 14.9606 6.93001C15.0056 6.99376 17.8106 7.09314 19.6012 4.57126C21.3919 2.04939 21.03 0.0881381 20.9662 0.0150131ZM27.18 22.0144C27.09 21.8344 22.8206 19.7006 23.2181 15.5981C23.6156 11.4938 26.3587 10.3688 26.4019 10.2469C26.445 10.125 25.2825 8.76564 24.0506 8.07751C23.1461 7.59236 22.1451 7.3144 21.12 7.26376C20.9175 7.25814 20.2144 7.08564 18.7687 7.48126C17.8162 7.74189 15.6694 8.58564 15.0787 8.61939C14.4862 8.65314 12.7237 7.64064 10.8281 7.37251C9.61498 7.13814 8.32873 7.61814 7.40811 7.98751C6.48936 8.35501 4.74186 9.40126 3.51936 12.1819C2.29686 14.9606 2.93623 19.3631 3.39373 20.7319C3.85123 22.0988 4.56561 24.3394 5.78061 25.9744C6.86061 27.8194 8.29311 29.1 8.89123 29.535C9.48936 29.97 11.1769 30.2588 12.3469 29.6606C13.2881 29.0831 14.9869 28.7513 15.6581 28.7756C16.3275 28.8 17.6475 29.0644 18.9994 29.7863C20.07 30.1556 21.0825 30.0019 22.0969 29.5894C23.1112 29.175 24.5794 27.6038 26.2931 24.4181C26.9437 22.9369 27.24 22.1363 27.18 22.0144Z" fill="black"/>
</g>
<defs>
<clipPath id="clip0_2283_1363">
<rect width="30" height="30" fill="white"/>
</clipPath>
</defs>
</svg>
