<svg width="30" height="30" viewBox="0 0 30 30" fill="none" xmlns="http://www.w3.org/2000/svg">
<path d="M27.3399 1.13184H2.66255C1.81729 1.13184 1.13208 1.81705 1.13208 2.6623V27.3396C1.13208 28.1849 1.81729 28.8701 2.66255 28.8701H27.3399C28.1851 28.8701 28.8704 28.1849 28.8704 27.3396V2.6623C28.8704 1.81705 28.1851 1.13184 27.3399 1.13184Z" fill="#3D5A98"/>
<path d="M20.2687 28.8684V18.127H23.8734L24.4125 13.941H20.2687V11.2692C20.2687 10.0574 20.6062 9.2301 22.3429 9.2301H24.5601V5.4801C23.4865 5.36821 22.4075 5.31501 21.3281 5.32073C18.1359 5.32073 15.9375 7.26604 15.9375 10.8543V13.941H12.3328V18.127H15.9375V28.8684H20.2687Z" fill="white"/>
</svg>
