<svg width="18" height="16" viewBox="0 0 18 16" fill="none" xmlns="http://www.w3.org/2000/svg">
<path d="M8.52195 11.2231C6.00686 10.9415 4.26533 8.50791 4.86789 6.00303L8.52195 11.2231ZM9.00001 12.25C5.79514 12.25 2.99714 10.5406 1.50001 8C2.17986 6.84635 3.12814 5.86432 4.26076 5.13569L3.40011 3.90623C2.0938 4.75732 0.997546 5.89816 0.207702 7.23847C0.0717175 7.46922 0 7.73218 0 8.00002C0 8.26785 0.0717175 8.53081 0.207702 8.76156C1.96889 11.7502 5.25439 13.75 9.00001 13.75C9.41412 13.75 9.82785 13.7253 10.239 13.676L9.23836 12.2465C9.15893 12.2487 9.07947 12.2499 9.00001 12.25ZM17.7923 8.76153C16.7538 10.5238 15.1854 11.941 13.3063 12.8081L14.8099 14.9563C14.9287 15.1259 14.8874 15.3598 14.7177 15.4785L14.0697 15.9322C13.9 16.051 13.6662 16.0097 13.5474 15.84L3.19014 1.04373C3.07136 0.874074 3.11264 0.64023 3.28229 0.521481L3.93033 0.067825C4.09998 -0.0509561 4.33383 -0.00967486 4.45258 0.159981L6.18776 2.63888C7.08164 2.38573 8.02526 2.25001 9.00001 2.25001C12.7456 2.25001 16.0311 4.24982 17.7923 7.23847C17.9283 7.46922 18 7.73217 18 8C18 8.26783 17.9283 8.53078 17.7923 8.76153ZM16.5 8C15.1201 5.65835 12.6351 4.02282 9.74495 3.78104C9.43883 4.09619 9.25001 4.52594 9.25001 5C9.25001 5.9665 10.0335 6.75 11 6.75C11.9665 6.75 12.75 5.9665 12.75 5L12.75 4.99869C13.7072 6.7886 13.2731 9.06931 11.596 10.3649L12.4302 11.5566C14.1446 10.8297 15.5721 9.57456 16.5 8Z" fill="#666666"/>
</svg>
