<svg width="18" height="11" viewBox="0 0 18 11" fill="none" xmlns="http://www.w3.org/2000/svg">
<path d="M17.7923 4.77158C16.0303 1.91152 12.7441 0 9 0C5.25438 0 1.96889 1.91286 0.207702 4.77158C0.0717174 4.9923 0 5.24382 0 5.50001C0 5.75621 0.0717174 6.00773 0.207702 6.22845C1.96973 9.08848 5.25594 11 9 11C12.7456 11 16.0311 9.08714 17.7923 6.22842C17.9283 6.00771 18 5.75619 18 5.5C18 5.24381 17.9283 4.99229 17.7923 4.77158ZM9 9.56522C5.79513 9.56522 2.99717 7.93013 1.50001 5.5C2.87992 3.26015 5.36491 1.69573 8.25506 1.46446C8.56119 1.76592 8.75 2.17698 8.75 2.63043C8.75 3.55491 7.9665 4.30435 7 4.30435C6.0335 4.30435 5.25001 3.55491 5.25001 2.63043L5.25004 2.62918C4.93107 3.19965 4.75001 3.85132 4.75001 4.54348C4.75001 6.78864 6.65279 8.6087 9 8.6087C11.3472 8.6087 13.25 6.78864 13.25 4.54348C13.25 3.61592 12.925 2.76109 12.3783 2.077C14.1157 2.76907 15.5628 3.97871 16.5 5.5C15.0029 7.93013 12.2049 9.56522 9 9.56522Z" fill="#666666"/>
</svg>
