<svg width="35" height="33" viewBox="0 0 35 33" fill="none" xmlns="http://www.w3.org/2000/svg">
<path d="M26.2261 17.9044V14.8444C26.2272 12.7762 25.5308 10.7682 24.2493 9.14486C22.9678 7.52157 21.1762 6.37797 19.1643 5.899C19.1794 5.83962 19.1914 5.77947 19.2 5.7188V1.7C19.2 1.24913 19.0209 0.816731 18.7021 0.497919C18.3833 0.179107 17.9509 0 17.5 0C17.0491 0 16.6167 0.179107 16.2979 0.497919C15.9791 0.816731 15.8 1.24913 15.8 1.7V5.7188C15.8086 5.77947 15.8206 5.83962 15.8357 5.899C13.8238 6.37797 12.0322 7.52157 10.7507 9.14486C9.46925 10.7682 8.77276 12.7762 8.7739 14.8444V17.9044C8.7739 21.9606 5.6 22.9738 5.6 25.0019C5.6 26.01 5.6 27.03 6.5146 27.03H28.4854C29.4 27.03 29.4 26.01 29.4 25.0019C29.4 22.9738 26.2261 21.9606 26.2261 17.9044ZM7.3 6.63C6.84917 6.6299 6.41684 6.45073 6.0981 6.1319L4.3981 4.4319C4.08843 4.11128 3.91708 3.68185 3.92095 3.23612C3.92483 2.79038 4.10361 2.364 4.41881 2.04881C4.734 1.73362 5.16038 1.55483 5.60612 1.55095C6.05185 1.54708 6.48128 1.71843 6.8019 2.0281L8.5019 3.7281C8.73958 3.96585 8.90143 4.26873 8.96699 4.59845C9.03256 4.92817 8.99889 5.26992 8.87025 5.58051C8.74161 5.8911 8.52378 6.15658 8.24428 6.34338C7.96478 6.53019 7.63618 6.62993 7.3 6.63ZM3.9 13.43H2.2C1.74913 13.43 1.31673 13.2509 0.997918 12.9321C0.679107 12.6133 0.5 12.1809 0.5 11.73C0.5 11.2791 0.679107 10.8467 0.997918 10.5279C1.31673 10.2091 1.74913 10.03 2.2 10.03H3.9C4.35087 10.03 4.78327 10.2091 5.10208 10.5279C5.42089 10.8467 5.6 11.2791 5.6 11.73C5.6 12.1809 5.42089 12.6133 5.10208 12.9321C4.78327 13.2509 4.35087 13.43 3.9 13.43ZM27.7 6.63C27.3638 6.62993 27.0352 6.53019 26.7557 6.34338C26.4762 6.15658 26.2584 5.8911 26.1297 5.58051C26.0011 5.26992 25.9674 4.92817 26.033 4.59845C26.0986 4.26873 26.2604 3.96585 26.4981 3.7281L28.1981 2.0281C28.3549 1.86573 28.5425 1.73622 28.7499 1.64713C28.9573 1.55803 29.1804 1.51114 29.4061 1.50917C29.6318 1.50721 29.8557 1.55023 30.0646 1.6357C30.2735 1.72118 30.4634 1.84741 30.623 2.00703C30.7826 2.16665 30.9088 2.35645 30.9943 2.56538C31.0798 2.7743 31.1228 2.99816 31.1208 3.22388C31.1189 3.44961 31.072 3.67268 30.9829 3.88009C30.8938 4.08749 30.7643 4.27508 30.6019 4.4319L28.9019 6.1319C28.5832 6.45073 28.1508 6.6299 27.7 6.63ZM32.8 13.43H31.1C30.6491 13.43 30.2167 13.2509 29.8979 12.9321C29.5791 12.6133 29.4 12.1809 29.4 11.73C29.4 11.2791 29.5791 10.8467 29.8979 10.5279C30.2167 10.2091 30.6491 10.03 31.1 10.03H32.8C33.2509 10.03 33.6833 10.2091 34.0021 10.5279C34.3209 10.8467 34.5 11.2791 34.5 11.73C34.5 12.1809 34.3209 12.6133 34.0021 12.9321C33.6833 13.2509 33.2509 13.43 32.8 13.43ZM12.0991 28.73C12.5501 29.7891 13.3025 30.6923 14.2628 31.3272C15.2231 31.962 16.3488 32.3005 17.5 32.3005C18.6512 32.3005 19.7769 31.962 20.7372 31.3272C21.6975 30.6923 22.4499 29.7891 22.9009 28.73H12.0991Z" fill="white"/>
</svg>
