<svg width="20" height="20" viewBox="0 0 20 20" fill="none" xmlns="http://www.w3.org/2000/svg">
<path d="M10.0003 3.12486C8.51699 3.12486 7.06694 3.56473 5.83357 4.38884C4.6002 5.21295 3.63891 6.38429 3.07125 7.75473C2.50359 9.12518 2.35507 10.6332 2.64446 12.088C2.93385 13.5429 3.64815 14.8793 4.69705 15.9282C5.74594 16.9771 7.08231 17.6914 8.53717 17.9807C9.99203 18.2701 11.5 18.1216 12.8705 17.554C14.2409 16.9863 15.4123 16.025 16.2364 14.7916C17.0605 13.5583 17.5003 12.1082 17.5003 10.6249C17.4981 8.63643 16.7072 6.7301 15.3011 5.32407C13.8951 3.91804 11.9888 3.12713 10.0003 3.12486ZM10.0003 16.8749C8.76421 16.8749 7.55584 16.5083 6.52803 15.8215C5.50023 15.1348 4.69915 14.1587 4.2261 13.0166C3.75305 11.8746 3.62928 10.6179 3.87044 9.40554C4.1116 8.19316 4.70685 7.07952 5.58093 6.20544C6.45501 5.33136 7.56865 4.73611 8.78103 4.49495C9.99341 4.25379 11.2501 4.37756 12.3921 4.85061C13.5342 5.32366 14.5103 6.12474 15.197 7.15255C15.8838 8.18035 16.2503 9.38873 16.2503 10.6249C16.2485 12.2819 15.5894 13.8705 14.4177 15.0422C13.246 16.2139 11.6574 16.873 10.0003 16.8749ZM4.81753 2.94205L2.31754 5.44205C2.20026 5.55932 2.0412 5.62521 1.87535 5.62521C1.7095 5.62521 1.55044 5.55932 1.43316 5.44205C1.31588 5.32477 1.25 5.16571 1.25 4.99986C1.25 4.83401 1.31588 4.67495 1.43316 4.55767L3.93316 2.05767C3.99123 1.9996 4.06017 1.95354 4.13604 1.92211C4.21191 1.89069 4.29323 1.87451 4.37535 1.87451C4.45747 1.87451 4.53879 1.89069 4.61466 1.92211C4.69053 1.95354 4.75947 1.9996 4.81753 2.05767C4.8756 2.11574 4.92167 2.18468 4.95309 2.26055C4.98452 2.33642 5.00069 2.41774 5.00069 2.49986C5.00069 2.58198 4.98452 2.6633 4.95309 2.73917C4.92167 2.81504 4.8756 2.88398 4.81753 2.94205ZM18.5675 5.44205C18.5095 5.50016 18.4406 5.54626 18.3647 5.57771C18.2888 5.60916 18.2075 5.62535 18.1253 5.62535C18.0432 5.62535 17.9619 5.60916 17.886 5.57771C17.8101 5.54626 17.7412 5.50016 17.6832 5.44205L15.1832 2.94205C15.0659 2.82477 15 2.66571 15 2.49986C15 2.33401 15.0659 2.17495 15.1832 2.05767C15.3004 1.9404 15.4595 1.87451 15.6253 1.87451C15.7912 1.87451 15.9503 1.9404 16.0675 2.05767L18.5675 4.55767C18.6256 4.61572 18.6717 4.68465 18.7032 4.76052C18.7347 4.8364 18.7508 4.91772 18.7508 4.99986C18.7508 5.08199 18.7347 5.16332 18.7032 5.2392C18.6717 5.31507 18.6256 5.384 18.5675 5.44205ZM14.3753 9.99986C14.5411 9.99986 14.7001 10.0657 14.8173 10.1829C14.9345 10.3001 15.0003 10.4591 15.0003 10.6249C15.0003 10.7906 14.9345 10.9496 14.8173 11.0668C14.7001 11.184 14.5411 11.2499 14.3753 11.2499H10.0003C9.83459 11.2499 9.67562 11.184 9.55841 11.0668C9.4412 10.9496 9.37535 10.7906 9.37535 10.6249V6.24986C9.37535 6.0841 9.4412 5.92513 9.55841 5.80792C9.67562 5.69071 9.83459 5.62486 10.0003 5.62486C10.1661 5.62486 10.3251 5.69071 10.4423 5.80792C10.5595 5.92513 10.6253 6.0841 10.6253 6.24986V9.99986H14.3753Z" fill="#CBCBD4"/>
</svg>
